<div class="svg-container">
  <svg id="OBJECTS" xmlns="http://www.w3.org/2000/svg" viewBox="0 0 279.94 279.94" width="100%" height="100%">
    <!-- SVG content -->
  </svg>
</div>

<style>
  .svg-container {
    width: 500px; /* Set the desired width */
    height: 500px; /* Set the desired height */
  }

  .svg-container svg {
    width: 100%; /* Make the SVG fill the container */
    height: 100%;
  }
</style>
  </defs>
  <g>
    <path class="cls-1" d="M176.26,96.86v-7.48h12.34c.44,0,1.05.24,1.84.72.79.48,1.18,1.55,1.18,3.22v35.43c0,.53.09,1.2.26,2.03.17.83.46,1.6.85,2.3.39.7.9,1.31,1.51,1.84.61.52,3.85.79,4.81.79v6.82c-1.66.18-5.36.98-6.19,2.43-.83,1.44-1.25,3.04-1.25,4.79v36.88c0,1.49-.33,2.51-.98,3.08-.66.57-1.33.85-2.03.85h-57.52v-7.48h52.41v-35.7c0-.96.22-2.25.66-3.87.44-1.62,1.36-3.04,2.76-4.27-1.4-1.22-2.32-2.62-2.76-4.2-.44-1.58-.66-2.89-.66-3.94v-34.25h-7.22Z"/>
    <path class="cls-1" d="M96.46,96.86v34.25c0,1.05-.22,2.36-.66,3.94-.44,1.58-1.36,2.98-2.76,4.2,1.4,1.23,2.32,2.65,2.76,4.27.44,1.62.66,2.91.66,3.87v35.7h7.22v7.48h-12.34c-.7,0-1.38-.28-2.03-.85-.66-.57-.98-1.6-.98-3.08v-36.88c0-1.75-.41-3.35-1.25-4.79-.83-1.44-4.52-2.25-6.19-2.43v-6.82c.96,0,4.2-.26,4.81-.79.61-.53,1.12-1.14,1.51-1.84.39-.7.68-1.46.85-2.3.18-.83.26-1.51.26-2.03v-35.43c0-1.66.39-2.73,1.18-3.22.79-.48,1.4-.72,1.84-.72h59.19v7.48h-54.07Z"/>
  </g>
  <g>
    <path class="cls-1" d="M139.97,135.96l-27.25-.38c0,.13,0,.25,0,.38,0,14.95,12.3,27.25,27.25,27.25s27.25-12.3,27.25-27.25h-27.25Z"/>
    <g>
      <path class="cls-1" d="M123.3,121.74c0-2.77-2.25-5.02-5.02-5.02s-5.02,2.25-5.02,5.02,2.25,5.02,5.02,5.02,5.02-2.25,5.02-5.02Z"/>
      <path class="cls-1" d="M166.67,121.74c0-2.77-2.25-5.02-5.02-5.02s-5.02,2.25-5.02,5.02,2.25,5.02,5.02,5.02,5.02-2.25,5.02-5.02Z"/>
    </g>
  </g>
</svg>